<svg xmlns="http://www.w3.org/2000/svg" viewBox="0 0 12 10">
	<line x1="0.8" y1="6.81592" x2="0.8" y2="9.81592" stroke="black" stroke-width="1.6"/>
	<line x1="10.8" y1="6.81592" x2="10.8" y2="9.81592" stroke="black" stroke-width="1.6"/>
	<line y1="9.11592" x2="11" y2="9.11592" stroke="black" stroke-width="1.4"/>
	<mask id="path-4-inside-1_118_816" fill="white">
	<path d="M5.91667 7.8159L3 4.89923L3.81667 4.0534L5.33333 5.57007V0.184578H6.5V5.57007L8.01667 4.0534L8.83333 4.89923L5.91667 7.8159Z"/>
	</mask>
	<path d="M5.91667 7.8159L3 4.89923L3.81667 4.0534L5.33333 5.57007V0.184578H6.5V5.57007L8.01667 4.0534L8.83333 4.89923L5.91667 7.8159Z" fill="black"/>
	<path d="M5.91667 7.8159L4.50245 9.23011L5.91667 10.6443L7.33088 9.23011L5.91667 7.8159ZM3 4.89923L1.5612 3.51004L0.196167 4.92383L1.58579 6.31345L3 4.89923ZM3.81667 4.0534L5.23088 2.63919L3.79164 1.19994L2.37786 2.66421L3.81667 4.0534ZM5.33333 5.57007L3.91912 6.98428L7.33333 10.3985V5.57007H5.33333ZM5.33333 0.184578V-1.81542H3.33333V0.184578H5.33333ZM6.5 0.184578H8.5V-1.81542H6.5V0.184578ZM6.5 5.57007H4.5V10.3985L7.91421 6.98428L6.5 5.57007ZM8.01667 4.0534L9.45547 2.66421L8.0417 1.19994L6.60245 2.63919L8.01667 4.0534ZM8.83333 4.89923L10.2475 6.31345L11.6372 4.92383L10.2721 3.51004L8.83333 4.89923ZM7.33088 6.40169L4.41421 3.48502L1.58579 6.31345L4.50245 9.23011L7.33088 6.40169ZM4.4388 6.28842L5.25547 5.44259L2.37786 2.66421L1.5612 3.51004L4.4388 6.28842ZM2.40245 5.46761L3.91912 6.98428L6.74755 4.15585L5.23088 2.63919L2.40245 5.46761ZM7.33333 5.57007V0.184578H3.33333V5.57007H7.33333ZM5.33333 2.18458H6.5V-1.81542H5.33333V2.18458ZM4.5 0.184578V5.57007H8.5V0.184578H4.5ZM7.91421 6.98428L9.43088 5.46761L6.60245 2.63919L5.08579 4.15585L7.91421 6.98428ZM6.57786 5.44259L7.39453 6.28842L10.2721 3.51004L9.45547 2.66421L6.57786 5.44259ZM7.41912 3.48502L4.50245 6.40169L7.33088 9.23011L10.2475 6.31345L7.41912 3.48502Z" fill="black" mask="url(#path-4-inside-1_118_816)"/>
</svg>