<svg width="349" height="348" viewBox="0 0 349 348" fill="none" xmlns="http://www.w3.org/2000/svg">
<path d="M183.21 10.6899L186.27 10.9599L186.2 11.7499C186.02 13.7599 187.06 14.5299 188.21 14.6299C189.36 14.7299 190.45 14.1299 190.61 12.2899L191.44 3.03993L187.06 2.64993L187.3 -6.67572e-05L194.76 0.669934L193.69 12.6299C193.36 16.3399 190.54 17.6999 187.91 17.4599C185.3 17.2299 182.8 15.3399 183.12 11.6799L183.21 10.6999V10.6899Z" fill="#FF0001"/>
<path d="M209.82 2.86993C214.73 3.87993 217.67 8.37993 216.69 13.1499C215.68 18.0599 211.18 21.1299 206.27 20.1199C201.36 19.1099 198.43 14.5099 199.45 9.59993C200.43 4.82993 204.91 1.85993 209.83 2.86993H209.82ZM206.84 17.3399C209.89 17.9699 212.86 15.9299 213.57 12.4999C214.25 9.20993 212.31 6.25993 209.25 5.62993C206.19 4.99993 203.25 6.93993 202.57 10.2299C201.86 13.6599 203.78 16.6999 206.84 17.3299V17.3399Z" fill="#FF0001"/>
<path d="M224.51 6.84994L227.47 7.76994L222.43 24.0499L219.47 23.1299L224.51 6.84994Z" fill="#FF0001"/>
<path d="M234.62 10.0899L237.48 11.2699L239.68 22.8299C239.9 23.9899 239.98 25.8099 239.98 25.8099L240.02 25.8299C240.02 25.8299 240.49 24.2599 240.87 23.3299L244.63 14.2399L247.47 15.4099L240.96 31.1499L238.12 29.9799L235.91 18.4499C235.69 17.2899 235.61 15.4699 235.61 15.4699L235.57 15.4499C235.57 15.4499 235.1 17.0199 234.72 17.9499L230.97 27.0199L228.11 25.8399L234.62 10.0999V10.0899Z" fill="#FF0001"/>
<path d="M268.7 26.8799C272.92 29.5899 274.05 34.8499 271.41 38.9499C268.7 43.1699 263.4 44.4099 259.18 41.6999C254.96 38.9899 253.89 33.6499 256.6 29.4299C259.23 25.3299 264.48 24.1699 268.7 26.8799ZM260.71 39.3199C263.33 41.0099 266.83 40.1699 268.73 37.2299C270.55 34.3999 269.79 30.9599 267.17 29.2699C264.55 27.5799 261.1 28.3299 259.28 31.1599C257.39 34.1099 258.09 37.6399 260.71 39.3199Z" fill="#FF0001"/>
<path d="M281.16 35.8599L283.53 37.8499L276.51 46.2199C275.05 47.9699 275.35 49.9199 277.1 51.3799C278.85 52.8499 280.84 52.8199 282.32 51.0599L289.32 42.7099L291.69 44.6999L284.67 53.0699C282.22 55.9899 278.44 56.2099 275.29 53.5699C272.13 50.9199 271.68 47.1599 274.13 44.2299L281.15 35.8599H281.16Z" fill="#FF0001"/>
<path d="M297.18 49.9499L300.96 53.9399C302.23 55.2799 302.7 55.9899 302.97 56.7599C303.58 58.5199 303.14 60.4299 301.5 61.9799C300.02 63.3799 297.9 63.8999 296.14 63.0899L296.1 63.1199C296.1 63.1199 296.1 63.4599 295.89 64.1199L293.68 71.0399L291.3 68.5299L293.59 61.6999L291.55 59.5399L286.93 63.9099L284.8 61.6599L297.17 49.9499H297.18ZM295.41 59.7099C296.55 60.9099 297.97 60.9899 299.21 59.8099C300.39 58.6899 300.65 57.4899 298.98 55.7299L297.36 54.0199L293.49 57.6799L295.4 59.6999L295.41 59.7099Z" fill="#FF0001"/>
<path d="M315.34 70.9499L317.07 73.5199L312.51 84.3699C312.05 85.4599 311.11 87.0199 311.11 87.0199L311.14 87.0599C311.14 87.0599 312.4 86.0099 313.24 85.4499L321.4 79.9599L323.11 82.5099L308.97 92.0199L307.26 89.4699L311.8 78.6299C312.26 77.5399 313.2 75.9799 313.2 75.9799L313.17 75.9399C313.17 75.9399 311.91 76.9899 311.07 77.5499L302.93 83.0299L301.2 80.4599L315.34 70.9499Z" fill="#FF0001"/>
<path d="M326.99 89.2499L331.7 98.2999L329.34 99.5299L326.06 93.2299L322.1 95.2899L324.75 100.38L322.39 101.61L319.74 96.5199L315.67 98.6399L319.13 105.28L316.77 106.51L311.88 97.1199L326.99 89.2399V89.2499Z" fill="#FF0001"/>
<path d="M328.58 121.83C327.75 122.42 326.99 122.72 327 122.75L327.02 122.79C327.02 122.79 327.83 122.57 328.81 122.44L340.84 121L341.94 124L324.43 125.77L323.19 122.41L331.74 116.47C332.68 115.82 333.69 115.29 333.69 115.29L333.67 115.25C333.67 115.25 332.56 115.5 331.43 115.62L321.07 116.65L319.83 113.29L334.34 103.39L335.44 106.39L325.31 112.99C324.48 113.52 323.72 113.88 323.72 113.88L323.74 113.93C323.74 113.93 324.52 113.69 325.54 113.6L337.66 112.41L338.59 114.93L328.58 121.84V121.83Z" fill="#FF0001"/>
<path d="M331.11 133.47C331.11 133.47 329.77 135.68 330.31 138.02C330.6 139.28 331.52 140.28 332.88 139.96C335.85 139.27 333.53 131.56 338.63 130.38C341.39 129.74 344 131.65 344.73 134.83C345.49 138.1 344.1 140.2 344.1 140.2L341.34 139.46C341.34 139.46 342.42 137.53 341.94 135.45C341.62 134.05 340.54 133.14 339.37 133.41C336.42 134.09 338.95 141.74 333.64 142.96C331 143.57 328.31 142.07 327.51 138.61C326.66 134.91 328.46 132.36 328.46 132.36L331.11 133.47Z" fill="#FF0001"/>
<path d="M346.73 146.44L347.14 149.51L332.89 151.41L333.86 158.71L331.22 159.06L329.84 148.69L346.73 146.44Z" fill="#FF0001"/>
<path d="M348.54 162.49L348.93 172.68L346.27 172.78L346 165.68L341.54 165.85L341.76 171.58L339.1 171.68L338.88 165.95L334.3 166.12L334.59 173.6L331.93 173.7L331.53 163.12L348.56 162.47L348.54 162.49Z" fill="#FF0001"/>
<path d="M345.96 182.93L346.3 177.35L348.96 177.51L348.1 191.76L345.44 191.6L345.78 186.02L331.43 185.15L331.62 182.06L345.97 182.93H345.96Z" fill="#FF0001"/>
<path d="M344.08 200.94L345 195.43L347.63 195.87L345.28 209.95L342.65 209.51L343.57 204L329.39 201.63L329.9 198.58L344.08 200.95V200.94Z" fill="#FF0001"/>
<path d="M343.98 215.35L341.3 225.19L338.73 224.49L340.6 217.63L336.29 216.46L334.78 222L332.21 221.3L333.72 215.76L329.3 214.56L327.33 221.79L324.76 221.09L327.54 210.88L343.99 215.35H343.98Z" fill="#FF0001"/>
<path d="M339.12 231.84L337.13 236.96C336.46 238.68 336.02 239.41 335.44 239.98C334.11 241.29 332.19 241.7 330.09 240.89C328.19 240.15 326.81 238.46 326.79 236.52L326.75 236.5C326.75 236.5 326.44 236.64 325.76 236.73L318.56 237.69L319.81 234.47L326.96 233.62L328.04 230.85L322.11 228.54L323.23 225.66L339.11 231.83L339.12 231.84ZM329.54 234.43C328.94 235.97 329.48 237.29 331.07 237.91C332.59 238.5 333.78 238.22 334.66 235.96L335.51 233.77L330.54 231.84L329.53 234.43H329.54Z" fill="#FF0001"/>
</svg>
