<svg width="280" height="90" viewBox="0 0 280 90" fill="none" xmlns="http://www.w3.org/2000/svg">
<path fill-rule="evenodd" clip-rule="evenodd" d="M41.8 32.8C45.3 32.8 48.9 32.6 52.5 32.4V34.5C46.7 35.1 46.5 37.1 45.5 42.4L43.8 51.9C37 54.6 30.9 56 25.7 56C9.9 56 0 46.1 0 31.5C0 23.2 3.4 15.2 9.5 9.4C15.9 3.4 23.4 0.5 32.6 0.5C38.5 0.5 44.4 1.9 49.7 4.5L51 3.3H52.2L50.1 16.3H48.3V15.7C48.3 7.7 42.5 2.7 32.8 2.7C26.7 2.7 20.7 5.4 16.1 10.3C10.8 15.8 7.8 23.2 7.8 30.9C7.8 44.4 15.9 53.7 26.6 53.7C33.6 53.7 37.2 50.8 38.2 44.8L39.1 39C39.1667 38.6667 39.2 38.3333 39.2 38C39.2 35.3 36.9 34.7 31.6 34.5V32.4C35 32.6 38.3 32.8 41.8 32.8ZM89.6 45.8C84.4 52.6 80 55.8 77.5 55.8C75.7 55.8 74.7 54.9 74.7 53.4C74.7 51.8 75.2 50 76 47.4L78.4 40.6C71.3 51 64.8 56 60.5 56C57.3 56 55.2 53.7 55.2 49.5C55.2 44.5 57.5 38.4 62.2 32.2C68.4 23.9 75.2 19.8 80 19.8C82.2 19.8 83.8 20.5 85 22.3L86.2 19.6C86.7 18.7 87.2 18.1 88.3 18.1C89.4 18.1 89.9 18.4 89.9 19C89.8333 19.9333 89.6 20.8 89.2 21.6L87.5 26.8C86.5 29.8 84.9 35.2 82.8 42.8L81.8 46.9C81.6667 47.3 81.5667 47.7 81.5 48.1C81.5 48.8 81.9 49.4 82.4 49.4C83.5 49.4 85.5 47.8 88.2 44.8L89.6 45.8ZM77.5 23.3C74.7 23.3 70.6 25.6 67 30.3C63 35.5 61.1 41 61.1 44.8C61.1 47.8 62.6 49.7 64.8 49.7C67.7 49.7 71.3 46.9 75.3 41.4C79.6 35.5 81.5 30.3 81.5 27.3C81.5 24.9 79.9 23.3 77.5 23.3ZM116.3 27.8C115.1 27.8 113.933 27.5667 112.8 27.1L107.1 25C106.433 24.8 105.7 24.7 104.9 24.7C102.8 24.7 101.5 25.8 101.5 27.2C101.5 28 102.1 28.7 102.1 29.6C102.1 30.7 101.2 31.5 100.2 31.5C98.9 31.4 97.9 30.3 98 29.1C98 29.1 98 29.0667 98 29C98 27.6 99.1 26 101.1 24C103.8 21.3 105.9 19.7 108.7 19.7C110.2 19.7 112.1 20.4 114.4 21.4L117.1 22.6C118.7 23.3 119.8 23.7 120.6 23.7C122.3 23.7 122.5 22.9 122.6 21.6C122.8 20.1 123.6 19.3 124.5 19.3C125.3 19.2 126.1 19.9 126.1 20.7C126.1 21.7 125.2 23.1 123.5 24.9L102.7 46.1C104.6 46.1 106.4 46.7 107.8 47.9L113.8 52.6C115.3 53.8 116.5 54.6 118 54.6C119.6 54.6 120.6 53.8 120.6 52.6C120.6 51.5 119.3 50.5 119.3 49.1C119.3 47.9 120 47.2 121 47.2C122.4 47.2 123.2 48.1 123.2 50C123.2 54.8 119.3 59.8 115 59.8C112.7 59.8 111.3 58.7 109.4 57.1L104.3 52.7C102.5 51.2 101.3 50.1 99.5 50.1C98.1 50.1 97.1 50.9 97.1 51.5C97.1 51.8 97.9 52.6 97.9 53.7C97.9 55 97.3 55.6 96.1 55.6C95 55.7 94.1 54.9 94 53.8C94 53.6667 94 53.5333 94 53.4C94 51.1 95.6 49.5 97.7 47.4L117.2 27.7C117 27.7 116.7 27.8 116.3 27.8ZM150 27.8C148.8 27.8 147.633 27.5667 146.5 27.1L140.8 25C140.067 24.8 139.333 24.7 138.6 24.7C136.4 24.7 135.1 25.8 135.1 27.2C135.1 28 135.8 28.7 135.8 29.6C135.8 30.7 134.9 31.5 133.9 31.5C133.833 31.5 133.8 31.5 133.8 31.5C132.6 31.4 131.6 30.3 131.7 29.1C131.7 29.1 131.7 29.0667 131.7 29C131.7 27.6 132.7 26 134.7 24C137.5 21.3 139.6 19.7 142.3 19.7C143.9 19.7 145.8 20.4 148.1 21.4L150.8 22.6C152.3 23.3 153.5 23.7 154.3 23.7C155.9 23.7 156.2 22.9 156.3 21.6C156.5 20.1 157.2 19.3 158.2 19.3C159 19.2 159.7 19.9 159.8 20.7C159.8 21.7 158.8 23.1 157.2 24.9L136.4 46.1C138.2 46.1 140 46.7 141.5 47.9L147.5 52.6C149 53.8 150.2 54.6 151.7 54.6C153.3 54.6 154.3 53.8 154.3 52.6C154.3 51.5 152.9 50.5 152.9 49.1C152.9 47.9 153.6 47.2 154.7 47.2C156.1 47.2 156.9 48.1 156.9 50C156.9 54.8 152.9 59.8 148.7 59.8C146.4 59.8 144.9 58.7 143.1 57.1L138 52.7C136.2 51.2 135 50.2 133.2 50.2C131.8 50.2 130.9 50.9 130.9 51.6C130.9 51.9 131.6 52.6 131.6 53.7C131.6 55 131 55.6 129.9 55.6C128.8 55.7 127.8 54.9 127.7 53.8C127.7 53.6667 127.7 53.5667 127.7 53.5C127.7 51.2 129.3 49.6 131.5 47.4L151 27.7C150.6 27.7 150.3 27.8 150 27.8ZM188.6 45.8C182.6 52.4 177.1 55.8 171.5 55.8C165.4 55.8 161.6 51.8 161.6 44.8C161.6 39.7 164.2 33.1 169 27.6C173.8 22.2 179.4 19.4 184.4 19.4C188.6 19.4 191.2 21.7 191.2 25.3C191.2 31.9 183.1 38.2 168.7 39.6C168.3 41.3333 168.067 43.0667 168 44.8C168 49.2 170.2 51.6 174.3 51.6C178.4 51.6 182.2 48.8 187.4 44.2L188.6 45.8ZM185.3 25.3C185.3 23.3 184.1 22 182.3 22C178.2 22 172.4 27.4 169.3 37.5C179.3 36.7 185.3 30.4 185.3 25.3ZM195.8 23.5L196.7 20.3H204.5L207.2 10.4H213.4L210.5 20.3H218.3L217.3 23.5H209.4L202.8 45.8C202.467 46.7333 202.3 47.7333 202.3 48.8C202.3 49.7 203.1 50.4 204.1 50.4C206 50.4 208.9 48 213.1 43.4L214.2 44.6C208.6 52.1 203.6 55.9 199.6 55.9C197 55.9 195.6 54.6 195.6 52.2C195.6 51 196 48.6 197 45.2L203.6 23.5H195.8ZM222.7 23.5L223.7 20.4H231.4L234.2 10.4H240.3L237.4 20.4H245.2L244.2 23.5H236.3L229.7 45.8C229.367 46.8 229.2 47.8 229.2 48.8C229.3 49.7 230.1 50.4 231 50.4C232.9 50.4 235.9 48 240 43.4L241.1 44.6C235.5 52.1 230.5 55.9 226.5 55.9C223.9 55.9 222.5 54.6 222.5 52.2C222.5 51 222.9 48.6 224 45.2L230.6 23.5H222.7Z" fill="#1D1D1B"/>
<path fill-rule="evenodd" clip-rule="evenodd" d="M278.9 45.8001C273.7 52.6001 269.3 55.8001 266.8 55.8001C264.9 55.8001 263.9 54.9001 263.9 53.4001C263.9 51.8001 264.5 50.0001 265.3 47.4001L267.7 40.6001C260.7 51.0001 254.1 56.0001 249.8 56.0001C246.6 56.0001 244.5 53.7001 244.5 49.5001C244.5 44.5001 246.8 38.4001 251.5 32.2001C257.7 23.9001 264.5 19.8001 269.3 19.8001C271.6 19.8001 273.1 20.5001 274.3 22.3001L275.6 19.6001C276 18.7001 276.5 18.1001 277.6 18.1001C278.7 18.1001 279.2 18.4001 279.2 19.0001C279.133 19.9334 278.9 20.8001 278.5 21.6001L276.9 26.8001C275.9 29.8001 274.2 35.2001 272.2 42.8001L271.1 46.9001C270.967 47.3001 270.9 47.7001 270.9 48.1001C270.9 48.8001 271.3 49.4001 271.7 49.4001C272.8 49.4001 274.8 47.8001 277.6 44.7001L278.9 45.8001ZM266.7 23.4001C264 23.4001 259.8 25.7001 256.3 30.3001C252.2 35.6001 250.3 41.1001 250.3 44.8001C250.3 47.9001 251.8 49.8001 254.1 49.8001C256.9 49.8001 260.5 47.0001 264.5 41.5001C268.8 35.6001 270.7 30.3001 270.7 27.4001C270.7 24.9001 269.2 23.4001 266.7 23.4001Z" fill="#1D1D1B"/>
<path fill-rule="evenodd" clip-rule="evenodd" d="M15.7 88.3L14.4 84.2H6.20001L4.80001 88.3H0.100006L8.50001 65H12L20.4 88.3H15.7ZM10.3 71.8L7.40001 80.3H13.1L10.3 71.8ZM47 88.3L37.9 74V88.3H33.4V65H37.4L46.5 79.2V65H51V88.3H47ZM75.3 69V88.3H70.8V69H64.8V65H81.4V69H75.3ZM95.4 65H99.9V88.3H95.4V65Z" fill="#E30613"/>
<path fill-rule="evenodd" clip-rule="evenodd" d="M155.4 88.5C150.6 88.5 146.9 85.2 146.9 80.3V65H151.4V80.1C151.4 82.8 152.9 84.4 155.4 84.4C157.8 84.4 159.4 82.8 159.4 80.1V65H163.8V80.3C163.8 85.2 160.1 88.5 155.4 88.5ZM192.5 88.3L191.1 84.2H182.9L181.5 88.3H176.8L185.2 65H188.7L197.2 88.3H192.5ZM187.1 71.8L184.1 80.3H189.9L187.1 71.8Z" fill="#E30613"/>
<path fill-rule="evenodd" clip-rule="evenodd" d="M223.2 88.3L218.7 79H215.4V88.3H210.9V65H220C224.7 65 227.5 68.2 227.5 72.1C227.5 74.9 225.8 77.3 223.2 78.2L228.4 88.3H223.2ZM219.7 69H215.5V75.2H219.7C221.7 75.2 223 73.9 223 72.1C223 70.3 221.7 69 219.7 69ZM242.3 65H246.8V88.3H242.3V65ZM274.9 88.3L273.6 84.2H265.4L264 88.3H259.3L267.7 65H271.2L279.6 88.3H274.9ZM269.5 71.8L266.6 80.3H272.3L269.5 71.8Z" fill="#E30613"/>
<path fill-rule="evenodd" clip-rule="evenodd" d="M130.3 89.3L128.3 87.2C124.8 89.3 120.3 88.8 117.4 85.9C115 83.6 115.1 80.6 115.1 76.6C115.1 72.6 115 69.7 117.4 67.3C120.8 63.9 126.4 63.9 129.8 67.3C132.2 69.7 132.1 72.6 132.1 76.6C132.1 80.2 132.2 82.7 130.7 84.9L132.7 86.9L130.3 89.3ZM126.5 70.1C125.7 69.3 124.7 68.8 123.6 68.8C122.5 68.8 121.4 69.3 120.6 70.1C119.8 71.1 119.5 72.1 119.5 76.6C119.5 81.1 119.8 82.2 120.6 83.2C121.4 84 122.5 84.5 123.6 84.4C124.6 84.3 125.5 83.9 126.1 83.2C127 82.3 127.6 80.8 127.6 76.6C127.6 72.1 127.3 71.1 126.5 70.1Z" fill="#E30613"/>
</svg>
